<svg xmlns="http://www.w3.org/2000/svg" width="1200" height="675" viewBox="0 0 1200 675" role="img" aria-label="GoForge Observatory dashboard">
  <rect width="1200" height="675" fill="#09090b"/>
  <rect x="40" y="40" width="1120" height="595" rx="12" fill="#18181b" stroke="#27272a" stroke-width="1"/>
  <text x="72" y="100" fill="#fafafa" font-family="system-ui,sans-serif" font-size="28" font-weight="600">GoForge Observatory</text>
  <text x="72" y="132" fill="#71717a" font-family="system-ui,sans-serif" font-size="16">Worker pool · queue depth · job lifecycle</text>
  <rect x="72" y="168" width="200" height="88" rx="8" fill="#27272a"/>
  <text x="92" y="205" fill="#71717a" font-size="13" font-family="system-ui">Queued</text>
  <text x="92" y="238" fill="#fafafa" font-size="32" font-weight="600" font-family="system-ui">0</text>
  <rect x="292" y="168" width="200" height="88" rx="8" fill="#27272a"/>
  <text x="312" y="205" fill="#71717a" font-size="13" font-family="system-ui">Running</text>
  <text x="312" y="238" fill="#3b82f6" font-size="32" font-weight="600" font-family="system-ui">5</text>
  <rect x="512" y="168" width="200" height="88" rx="8" fill="#27272a"/>
  <text x="532" y="205" fill="#71717a" font-size="13" font-family="system-ui">Completed</text>
  <text x="532" y="238" fill="#22c55e" font-size="32" font-weight="600" font-family="system-ui">13</text>
  <rect x="732" y="168" width="200" height="88" rx="8" fill="#27272a"/>
  <text x="752" y="205" fill="#71717a" font-size="13" font-family="system-ui">Failed</text>
  <text x="752" y="238" fill="#f59e0b" font-size="32" font-weight="600" font-family="system-ui">7</text>
  <rect x="72" y="288" width="500" height="280" rx="8" fill="#27272a"/>
  <text x="92" y="322" fill="#fafafa" font-size="16" font-weight="500" font-family="system-ui">Worker Pool</text>
  <rect x="92" y="348" width="80" height="36" rx="4" fill="#3b82f6" opacity="0.8"/>
  <rect x="182" y="348" width="80" height="36" rx="4" fill="#27272a" stroke="#3b82f6"/>
  <rect x="272" y="348" width="80" height="36" rx="4" fill="#27272a" stroke="#52525b"/>
  <rect x="362" y="348" width="80" height="36" rx="4" fill="#27272a" stroke="#52525b"/>
  <rect x="452" y="348" width="80" height="36" rx="4" fill="#27272a" stroke="#52525b"/>
  <rect x="592" y="288" width="500" height="280" rx="8" fill="#27272a"/>
  <text x="612" y="322" fill="#fafafa" font-size="16" font-weight="500" font-family="system-ui">Queue Depth</text>
  <rect x="612" y="360" width="460" height="24" rx="4" fill="#18181b"/>
  <rect x="612" y="360" width="120" height="24" rx="4" fill="#3b82f6"/>
  <text x="612" y="420" fill="#71717a" font-size="14" font-family="monospace">0 / 512 buffered · 23% capacity</text>
</svg>
